:SAMPLES-PER-SECOND 30
:FULLY-SPECIFIED
:DEGREES
252
root  55.9394 30.2064 -5.89665 -166.072 -58.1637 -179.102
RightUpLeg  -43.8631 -0.028496 5.00968
RightLeg  57.2591 -5.01636 -6.82748
RightFoot  -17.5115 0.386841 2.88894
RightToes  -17.2784 -0.0668125 -0.154588
Spine  13.972 4.77653 -4.49357
Spine1  23.7643 12.5933 -10.2264
HEad  15.9245 -22.4498 26.7379
LeftShoulder1  0 -2.42657e-020 -4.95415e-022
LeftArm  -34.5285 -18.8235 -73.791
LeftForeArm  29.4489 -59.6832 -17.6193
LeftHand  0.985831 -6.22933 -18.3587
RightShoulder  0 2.42657e-020 1.07489e-018
RightArm  -24.2217 19.2684 97.4793
RightForeArm  43.5288 24.1076 4.50516
RightHand  -1.99367 24.9985 -8.60806
LeftUpLeg  -59.6215 -24.0641 25.2763
LeftLeg  38.384 -9.18246 -6.31095
LeftFoot  -9.76973 0.149798 1.75262
LeftToes  -20.5163 2.37847e-007 4.89147e-008
253
root  55.4079 29.6245 -6.70739 -166.084 -57.894 -179.238
RightUpLeg  -44.0918 1.6716 5.70662
RightLeg  61.2843 -5.48284 -8.65082
RightFoot  -21.5488 0.69769 4.04279
RightToes  -12.7437 -0.0448055 -0.116077
Spine  13.7009 5.09909 -4.59139
Spine1  23.7095 12.9515 -9.44402
HEad  11.4075 -27.0695 31.3142
LeftShoulder1  0 -2.42657e-020 -4.95415e-022
LeftArm  -33.122 -17.8852 -71.6603
LeftForeArm  33.1922 -68.0151 -26.0553
LeftHand  1.13887 -5.47277 -23.8935
RightShoulder  0 2.42657e-020 1.07489e-018
RightArm  -25.5622 15.5395 95.7737
RightForeArm  42.2143 27.6615 5.28511
RightHand  -2.31342 25.5222 -9.82148
LeftUpLeg  -61.0584 -23.2552 25.7422
LeftLeg  38.0424 -15.6991 -10.486
LeftFoot  -3.18064 0.0273711 0.985835
LeftToes  -38.678 2.37847e-007 4.89147e-008
254
root  54.8442 28.6908 -7.44582 -166.483 -56.1256 -179.476
RightUpLeg  -45.1925 5.11404 5.63316
RightLeg  67.8283 -4.59712 -9.52759
RightFoot  -25.488 1.0028 4.80947
RightToes  -11.138 -0.0377529 -0.10204
Spine  13.8133 5.32908 -4.91332
Spine1  23.9879 13.1682 -9.0771
HEad  8.62534 -30.5383 33.4616
LeftShoulder1  0 -2.42657e-020 -4.95415e-022
LeftArm  -32.1057 -17.6124 -69.257
LeftForeArm  42.5663 -75.3265 -42.7247
LeftHand  0.927505 -3.92213 -27.0164
RightShoulder  0 2.42657e-020 1.07489e-018
RightArm  -24.7775 13.3112 94.4641
RightForeArm  40.8546 30.7518 6.00735
RightHand  -2.53511 24.4338 -11.3029
LeftUpLeg  -61.8874 -21.043 24.4922
LeftLeg  45.3547 -19.7288 -16.73
LeftFoot  3.09166 0.0399064 -1.47869
LeftToes  -48.6942 2.37847e-007 4.89147e-008
255
root  54.2935 27.6852 -8.15885 -166.783 -54.8511 179.059
RightUpLeg  -45.5685 8.26257 4.50048
RightLeg  75.9249 -3.29898 -10.4348
RightFoot  -29.0396 1.34526 5.56872
RightToes  -8.87535 -0.0284887 -0.0819358
Spine  14.5441 4.81517 -5.26376
Spine1  25.0895 12.3115 -9.45168
HEad  7.33485 -31.8974 34.0181
LeftShoulder1  0 -2.42657e-020 -4.95415e-022
LeftArm  -31.0316 -19.8159 -67.4436
LeftForeArm  53.6665 -78.4925 -60.8527
LeftHand  0.593885 -2.50094 -27.1555
RightShoulder  0 2.42657e-020 1.07489e-018
RightArm  -23.3202 13.6072 94.1752
RightForeArm  37.3328 31.5074 6.19482
RightHand  -2.48661 23.4999 -11.5467
LeftUpLeg  -63.7228 -18.0217 21.1398
LeftLeg  55.6347 -17.3273 -20.8428
LeftFoot  0.921353 0.0035363 -0.43982
LeftToes  -54.62 2.37847e-007 4.89147e-008
256
root  53.9172 26.9031 -8.95537 -167.599 -55.3645 178.166
RightUpLeg  -44.2601 10.0878 3.58643
RightLeg  84.0097 -2.37538 -14.2028
RightFoot  -31.8936 2.16776 7.95404
RightToes  -4.77499 -0.01375 -0.0446337
Spine  15.1062 3.48623 -5.13536
Spine1  25.9584 9.71599 -8.98689
HEad  8.04568 -33.4098 33.8105
LeftShoulder1  0 -2.42657e-020 -4.95415e-022
LeftArm  -29.6479 -22.9715 -67.3478
LeftForeArm  55.7844 -79.0466 -66.734
LeftHand  0.259248 -1.04899 -28.3136
RightShoulder  0 2.42657e-020 1.07489e-018
RightArm  -25.8266 14.8845 95.4196
RightForeArm  35.0069 29.301 5.66985
RightHand  -2.24691 23.9166 -10.2127
LeftUpLeg  -64.1471 -16.4422 19.4867
LeftLeg  61.8354 -16.4581 -24.5282
LeftFoot  -1.89508 0.0167815 1.01461
LeftToes  -58.9178 2.37847e-007 4.89147e-008
